HIERARCHY
ROOT Hips
{
	OFFSET 0.000000 100.481300 0.000000
	CHANNELS 6 Xposition Yposition Zposition Xrotation Yrotation Zrotation 
	JOINT Spine
	{
		OFFSET -0.279200 12.230698 -2.892100
		CHANNELS 3 Xrotation Yrotation Zrotation
		JOINT Spine1
		{
			OFFSET -0.232667 10.192268 -1.242267
			CHANNELS 3 Xrotation Yrotation Zrotation
			JOINT Spine1_split
			{
				OFFSET -0.232667 10.192268 -1.242267
				CHANNELS 3 Xrotation Yrotation Zrotation
				JOINT Spine2
				{
					OFFSET -0.232667 10.192268 -1.242267
					CHANNELS 3 Xrotation Yrotation Zrotation
					JOINT Neck
					{
						OFFSET -0.418800 17.814194 8.416900
						CHANNELS 3 Xrotation Yrotation Zrotation
						JOINT Head
						{
							OFFSET 0.000000 7.031097 3.806800
							CHANNELS 3 Xrotation Yrotation Zrotation
							JOINT HeadTop_End
							{
								OFFSET 0.000000 24.646606 12.978600
								CHANNELS 3 Xrotation Yrotation Zrotation
								End Site
								{
									OFFSET 0.000000 0.000000 0.000000
								}
							}
						}
					}
					JOINT LeftShoulder
					{
						OFFSET 8.476499 7.247704 -3.868750
						CHANNELS 3 Xrotation Yrotation Zrotation
						JOINT LeftShoulder_split
						{
							OFFSET 8.476499 7.247704 -3.868750
							CHANNELS 3 Xrotation Yrotation Zrotation
							JOINT LeftArm
							{
								OFFSET 9.308998 -2.777710 0.208600
								CHANNELS 3 Xrotation Yrotation Zrotation
								JOINT LeftForeArm
								{
									OFFSET 29.972298 0.000000 0.000000
									CHANNELS 3 Xrotation Yrotation Zrotation
									JOINT LeftHand
									{
										OFFSET 26.026505 0.000000 0.000000
										CHANNELS 3 Xrotation Yrotation Zrotation
										JOINT LeftHandThumb1
										{
											OFFSET 12.240501 -7.147949 9.207150
											CHANNELS 3 Xrotation Yrotation Zrotation
											JOINT LeftHandThumb2
											{
												OFFSET 4.138618 -2.389435 2.389433
												CHANNELS 3 Xrotation Yrotation Zrotation
												JOINT LeftHandThumb3
												{
													OFFSET 2.726913 -1.574387 1.574386
													CHANNELS 3 Xrotation Yrotation Zrotation
													JOINT LeftHandThumb4
													{
														OFFSET 3.941010 -2.275345 2.275342
														CHANNELS 3 Xrotation Yrotation Zrotation
														End Site
														{
															OFFSET 0.000000 0.000000 0.000000
														}
													}
												}
											}
										}
										JOINT LeftHandIndex1
										{
											OFFSET 24.424698 -1.985611 5.953459
											CHANNELS 3 Xrotation Yrotation Zrotation
											JOINT LeftHandIndex2
											{
												OFFSET 6.426697 0.000000 0.000000
												CHANNELS 3 Xrotation Yrotation Zrotation
												JOINT LeftHandIndex3
												{
													OFFSET 5.337898 0.000000 0.000000
													CHANNELS 3 Xrotation Yrotation Zrotation
													JOINT LeftHandIndex4
													{
														OFFSET 4.409401 0.000000 0.000000
														CHANNELS 3 Xrotation Yrotation Zrotation
														End Site
														{
															OFFSET 0.000000 0.000000 0.000000
														}
													}
												}
											}
										}
										JOINT LeftHandMiddle1
										{
											OFFSET 23.810104 0.000000 0.000000
											CHANNELS 3 Xrotation Yrotation Zrotation
											JOINT LeftHandMiddle2
											{
												OFFSET 7.176498 0.000000 0.000000
												CHANNELS 3 Xrotation Yrotation Zrotation
												JOINT LeftHandMiddle3
												{
													OFFSET 6.774902 0.000000 0.000000
													CHANNELS 3 Xrotation Yrotation Zrotation
													JOINT LeftHandMiddle4
													{
														OFFSET 5.403328 0.000000 0.000000
														CHANNELS 3 Xrotation Yrotation Zrotation
														End Site
														{
															OFFSET 0.000000 0.000000 0.000000
														}
													}
												}
											}
										}
										JOINT LeftHandRing1
										{
											OFFSET 22.908401 -0.839279 -6.020567
											CHANNELS 3 Xrotation Yrotation Zrotation
											JOINT LeftHandRing2
											{
												OFFSET 6.337502 0.000000 0.000000
												CHANNELS 3 Xrotation Yrotation Zrotation
												JOINT LeftHandRing3
												{
													OFFSET 5.779297 0.000000 0.000000
													CHANNELS 3 Xrotation Yrotation Zrotation
													JOINT LeftHandRing4
													{
														OFFSET 4.965698 0.000000 0.000000
														CHANNELS 3 Xrotation Yrotation Zrotation
														End Site
														{
															OFFSET 0.000000 0.000000 0.000000
														}
													}
												}
											}
										}
										JOINT LeftHandPinky1
										{
											OFFSET 20.037003 -1.530319 -10.950146
											CHANNELS 3 Xrotation Yrotation Zrotation
											JOINT LeftHandPinky2
											{
												OFFSET 5.254700 0.000000 0.000000
												CHANNELS 3 Xrotation Yrotation Zrotation
												JOINT LeftHandPinky3
												{
													OFFSET 4.810204 0.000000 0.000000
													CHANNELS 3 Xrotation Yrotation Zrotation
													JOINT LeftHandPinky4
													{
														OFFSET 3.647202 0.000000 0.000000
														CHANNELS 3 Xrotation Yrotation Zrotation
														End Site
														{
															OFFSET 0.000000 0.000000 0.000000
														}
													}
												}
											}
										}
									}
								}
							}
						}
					}
					JOINT RightShoulder
					{
						OFFSET -7.570500 7.247704 -3.868750
						CHANNELS 3 Xrotation Yrotation Zrotation
						JOINT RightShoulder_split
						{
							OFFSET -7.570500 7.247704 -3.868750
							CHANNELS 3 Xrotation Yrotation Zrotation
							JOINT RightArm
							{
								OFFSET -9.308998 -2.777710 0.208500
								CHANNELS 3 Xrotation Yrotation Zrotation
								JOINT RightForeArm
								{
									OFFSET -29.972300 0.000000 0.000000
									CHANNELS 3 Xrotation Yrotation Zrotation
									JOINT RightHand
									{
										OFFSET -26.026505 0.000000 0.000000
										CHANNELS 3 Xrotation Yrotation Zrotation
										JOINT RightHandThumb1
										{
											OFFSET -12.240601 -7.148026 9.207092
											CHANNELS 3 Xrotation Yrotation Zrotation
											JOINT RightHandThumb2
											{
												OFFSET -4.138618 -2.389435 2.389433
												CHANNELS 3 Xrotation Yrotation Zrotation
												JOINT RightHandThumb3
												{
													OFFSET -2.726974 -1.574417 1.574421
													CHANNELS 3 Xrotation Yrotation Zrotation
													JOINT RightHandThumb4
													{
														OFFSET -3.941010 -2.275345 2.275343
														CHANNELS 3 Xrotation Yrotation Zrotation
														End Site
														{
															OFFSET 0.000000 0.000000 0.000000
														}
													}
												}
											}
										}
										JOINT RightHandIndex1
										{
											OFFSET -24.424698 -1.985657 5.953444
											CHANNELS 3 Xrotation Yrotation Zrotation
											JOINT RightHandIndex2
											{
												OFFSET -6.426697 0.000000 0.000000
												CHANNELS 3 Xrotation Yrotation Zrotation
												JOINT RightHandIndex3
												{
													OFFSET -5.337898 0.000000 0.000000
													CHANNELS 3 Xrotation Yrotation Zrotation
													JOINT RightHandIndex4
													{
														OFFSET -4.409401 0.000000 0.000000
														CHANNELS 3 Xrotation Yrotation Zrotation
														End Site
														{
															OFFSET 0.000000 0.000000 0.000000
														}
													}
												}
											}
										}
										JOINT RightHandMiddle1
										{
											OFFSET -23.810097 0.000000 0.000000
											CHANNELS 3 Xrotation Yrotation Zrotation
											JOINT RightHandMiddle2
											{
												OFFSET -7.176498 0.000000 0.000000
												CHANNELS 3 Xrotation Yrotation Zrotation
												JOINT RightHandMiddle3
												{
													OFFSET -6.774902 0.000000 0.000000
													CHANNELS 3 Xrotation Yrotation Zrotation
													JOINT RightHandMiddle4
													{
														OFFSET -5.403328 0.000000 0.000000
														CHANNELS 3 Xrotation Yrotation Zrotation
														End Site
														{
															OFFSET 0.000000 0.000000 0.000000
														}
													}
												}
											}
										}
										JOINT RightHandRing1
										{
											OFFSET -22.908302 -0.839325 -6.020576
											CHANNELS 3 Xrotation Yrotation Zrotation
											JOINT RightHandRing2
											{
												OFFSET -6.337502 0.000000 0.000000
												CHANNELS 3 Xrotation Yrotation Zrotation
												JOINT RightHandRing3
												{
													OFFSET -5.779297 0.000000 0.000000
													CHANNELS 3 Xrotation Yrotation Zrotation
													JOINT RightHandRing4
													{
														OFFSET -4.965698 0.000000 0.000000
														CHANNELS 3 Xrotation Yrotation Zrotation
														End Site
														{
															OFFSET 0.000000 0.000000 0.000000
														}
													}
												}
											}
										}
										JOINT RightHandPinky1
										{
											OFFSET -20.037003 -1.530334 -10.950259
											CHANNELS 3 Xrotation Yrotation Zrotation
											JOINT RightHandPinky2
											{
												OFFSET -5.254700 0.000000 0.000000
												CHANNELS 3 Xrotation Yrotation Zrotation
												JOINT RightHandPinky3
												{
													OFFSET -4.810204 0.000000 0.000000
													CHANNELS 3 Xrotation Yrotation Zrotation
													JOINT RightHandPinky4
													{
														OFFSET -3.647202 0.000000 0.000000
														CHANNELS 3 Xrotation Yrotation Zrotation
														End Site
														{
															OFFSET 0.000000 0.000000 0.000000
														}
													}
												}
											}
										}
									}
								}
							}
						}
					}
				}
			}
		}
	}
	JOINT LeftUpLeg
	{
		OFFSET 15.427100 -6.655098 0.678600
		CHANNELS 3 Xrotation Yrotation Zrotation
		JOINT LeftLeg
		{
			OFFSET 4.081073 -39.591068 13.024000
			CHANNELS 3 Xrotation Yrotation Zrotation
			JOINT LeftFoot
			{
				OFFSET -4.081074 -37.707932 -15.979700
				CHANNELS 3 Xrotation Yrotation Zrotation
				JOINT LeftToeBase
				{
					OFFSET 5.346399 -15.068900 20.645000
					CHANNELS 3 Xrotation Yrotation Zrotation
					JOINT LeftToe_End
					{
						OFFSET 2.754700 0.931300 11.300900
						CHANNELS 3 Xrotation Yrotation Zrotation
						End Site
						{
							OFFSET 0.000000 0.000000 0.000000
						}
					}
				}
			}
		}
	}
	JOINT RightUpLeg
	{
		OFFSET -15.569500 -6.655098 0.678600
		CHANNELS 3 Xrotation Yrotation Zrotation
		JOINT RightLeg
		{
			OFFSET -4.081825 -39.591045 13.023800
			CHANNELS 3 Xrotation Yrotation Zrotation
			JOINT RightFoot
			{
				OFFSET 4.081824 -37.707954 -15.979600
				CHANNELS 3 Xrotation Yrotation Zrotation
				JOINT RightToeBase
				{
					OFFSET -5.346400 -15.068900 20.645000
					CHANNELS 3 Xrotation Yrotation Zrotation
					JOINT RightToe_End
					{
						OFFSET -2.754700 0.931300 11.300900
						CHANNELS 3 Xrotation Yrotation Zrotation
						End Site
						{
							OFFSET 0.000000 0.000000 0.000000
						}
					}
				}
			}
		}
	}
}
MOTION
Frames: 5
Frame Time: 0.016667
-0.263988 96.995598 -0.948315 -5.477493 -11.975707 -1.933687 12.239597 1.568667 -0.768896 -3.993952 -8.493234 0.813504 0.000000 0.000000 0.000000 -5.969560 4.580066 -2.629902 11.255315 0.027616 0.080740 -1.984796 -0.580073 3.370286 0.000000 0.000000 -0.000000 4.233561 -14.085160 -0.897021 0.000000 0.000000 0.000000 5.919386 4.805979 -79.119381 2.144042 -12.162859 0.993656 -12.199782 -3.041355 9.443693 -3.785192 8.458472 12.351805 7.455422 11.608364 -1.288620 1.129273 8.847043 5.185758 0.000002 -0.000001 -0.000001 2.384620 3.620117 -6.815632 0.018942 0.237213 -17.103729 0.036635 0.180346 -12.954486 -0.000000 -0.000000 -0.000000 -1.935800 5.644693 -11.386939 0.101769 0.660609 -24.767601 0.036786 0.028179 -9.474912 -0.000000 -0.000000 -0.000004 -4.873193 10.020072 -7.875412 -0.044692 0.326928 -30.086099 0.078003 0.706492 -12.602625 0.000001 0.000000 0.000000 -6.437514 11.282618 -19.770978 0.059311 0.243042 -30.857593 0.012400 0.131907 -11.459624 -0.000000 0.000000 -0.000002 3.456614 7.912193 4.381424 0.000000 0.000000 0.000000 4.870320 0.880827 78.811811 0.216080 17.510300 -0.089622 -4.831395 -4.161986 -10.247033 -0.464239 -8.992503 -6.084811 7.446402 -11.613883 1.293112 1.119995 -8.851356 -5.181761 0.000000 -0.000005 -0.000002 2.362527 -3.634249 8.333189 0.012278 -0.255080 18.622478 0.037631 -0.182848 14.473400 -0.000000 -0.000001 -0.000001 -1.983657 -5.671259 13.530162 0.138086 -0.655755 26.914173 0.033813 -0.044598 11.621560 0.000001 -0.000000 -0.000002 -4.977979 -10.100807 10.695751 -0.008991 -0.341851 32.924008 0.109183 -0.701110 15.434981 -0.000000 0.000001 -0.000002 -6.474090 -11.323136 23.226036 0.083652 -0.233788 34.318002 0.018896 -0.139634 14.919935 0.000001 0.000000 -0.000002 3.096362 21.209887 1.747322 11.686223 3.889465 1.156299 -9.852350 -0.537707 -1.996127 -0.077379 -0.000318 -0.084734 0.000000 -0.000000 -0.000000 -3.370768 -8.976410 -13.195826 7.740192 -12.081914 1.669136 4.110526 -1.631531 10.267922 -0.002833 0.000039 0.000579 -0.000000 0.000000 -0.000000 
-0.332472 96.865761 -1.028707 -5.456352 -11.801142 -1.922119 12.263413 1.580353 -0.875388 -4.009648 -8.492097 0.838626 0.000000 0.000000 0.000000 -5.990857 4.581321 -2.607014 11.197291 -0.037179 0.154592 -1.933323 -0.649537 3.461111 -0.000000 -0.000000 -0.000000 4.134858 -13.909756 -1.027312 0.000000 0.000000 0.000000 5.833300 4.715153 -78.638311 2.464692 -12.082302 0.839273 -11.971000 -2.884896 9.022986 -3.764263 8.410113 12.319233 7.372636 11.506804 -1.247443 1.230928 9.019810 5.174658 -0.000002 -0.000001 -0.000001 2.321428 3.520235 -6.821858 0.019651 0.237891 -17.855235 0.039181 0.180593 -13.622962 -0.000003 -0.000000 -0.000001 -1.898747 5.569504 -11.597260 0.101643 0.651976 -24.994626 0.039762 0.032092 -10.231501 0.000000 -0.000000 -0.000000 -4.774473 9.989804 -8.066127 -0.044683 0.327386 -30.156105 0.079748 0.695935 -13.012788 0.000001 0.000002 0.000004 -6.325153 11.199815 -19.848016 0.058973 0.242585 -30.742565 0.013119 0.133173 -11.730735 -0.000000 -0.000000 -0.000002 3.381226 7.803407 4.537099 0.000000 0.000000 0.000000 5.024064 1.620401 78.436117 0.420642 17.682392 -0.003070 -5.282814 -3.964284 -10.374968 -0.507289 -9.279076 -6.121825 7.209217 -11.240092 1.219508 1.088816 -8.566741 -5.010570 0.000000 -0.000000 0.000002 2.356833 -3.533950 8.694489 0.011840 -0.249325 18.450684 0.037201 -0.177211 14.426917 -0.000001 0.000000 0.000001 -1.904670 -5.449618 13.745673 0.133095 -0.634496 26.482327 0.034000 -0.044875 11.674585 -0.000000 -0.000000 0.000002 -4.780971 -9.668428 11.141312 -0.009695 -0.329679 32.368840 0.105744 -0.678804 15.435031 0.000001 0.000000 -0.000001 -6.359791 -10.736978 23.396427 0.076963 -0.231844 33.790688 0.019102 -0.135254 15.009561 -0.000001 0.000000 -0.000002 2.725928 21.217506 1.901094 12.134216 3.684789 1.130158 -9.975362 -0.530821 -1.959517 -0.077471 -0.000315 -0.084537 -0.000000 0.000001 0.000000 -3.615925 -8.917668 -13.173727 8.211075 -12.059742 1.573098 3.868785 -1.639756 10.369046 -0.002834 0.000032 0.000581 -0.000000 0.000000 -0.000000 
-0.396331 96.737732 -1.116380 -5.398807 -11.611682 -1.930665 12.241339 1.585074 -0.959340 -4.018684 -8.493301 0.862145 0.000000 0.000000 0.000000 -6.005033 4.580155 -2.583795 11.160977 -0.091033 0.230803 -1.910300 -0.714435 3.577409 -0.000000 0.000000 0.000000 4.037700 -13.737896 -1.155441 0.000000 0.000000 0.000000 5.705741 4.632386 -78.161475 2.775903 -11.939537 0.681347 -11.739152 -2.759552 8.593611 -3.751099 8.349390 12.295316 7.298338 11.419268 -1.207312 1.342456 9.223521 5.172556 -0.000001 -0.000002 -0.000002 2.257670 3.427914 -6.819778 0.023239 0.238450 -18.684493 0.041955 0.180816 -14.354455 0.000002 0.000000 0.000000 -1.862102 5.502066 -11.816819 0.101816 0.643608 -25.268182 0.043041 0.031621 -11.047282 0.000000 0.000001 0.000000 -4.681531 9.963953 -8.246965 -0.044631 0.328114 -30.263342 0.081932 0.685919 -13.453912 0.000000 -0.000000 0.000003 -6.218979 11.123540 -19.917520 0.058692 0.242171 -30.644067 0.013807 0.134457 -12.012091 0.000000 0.000000 -0.000001 3.306759 7.693739 4.690966 0.000000 0.000000 0.000000 5.157377 2.358696 78.058926 0.618394 17.828501 0.086475 -5.725246 -3.745776 -10.502788 -0.553289 -9.581183 -6.161868 6.959107 -10.845797 1.144355 1.055501 -8.266173 -4.830217 -0.000000 0.000003 0.000001 2.350869 -3.428245 9.075712 0.011338 -0.243170 18.269306 0.036735 -0.171057 14.378091 0.000000 -0.000000 -0.000001 -1.823164 -5.215157 13.972267 0.127792 -0.612063 26.026630 0.034242 -0.045134 11.730570 0.000001 -0.000001 0.000000 -4.580364 -9.209579 11.607379 -0.010358 -0.316799 31.782783 0.102021 -0.655242 15.435138 -0.000000 -0.000001 0.000001 -6.242239 -10.117658 23.571466 0.069918 -0.225117 33.234338 0.019292 -0.130614 15.104065 0.000001 0.000000 -0.000001 2.281372 21.256010 2.082382 12.600364 3.407214 1.102001 -10.092768 -0.500115 -1.892138 -0.077585 -0.000314 -0.084323 -0.000000 0.000000 0.000000 -3.870859 -8.863852 -13.130591 8.647104 -12.080801 1.481485 3.648140 -1.627670 10.471677 -0.002810 0.000027 0.000571 -0.000000 0.000000 0.000000 
-0.432834 96.593689 -1.234727 -5.268283 -11.380751 -1.984094 12.139518 1.570672 -0.976199 -4.021895 -8.515547 0.871766 0.000000 0.000000 0.000000 -6.003065 4.558939 -2.572199 11.158115 -0.114064 0.288823 -1.943715 -0.770575 3.768100 -0.000000 -0.000001 0.000000 3.942083 -13.569998 -1.281383 0.000000 0.000000 0.000000 5.619342 4.574182 -77.694727 3.051948 -11.904676 0.522645 -11.509802 -2.582423 8.194525 -3.744023 8.279134 12.277940 7.230593 11.342596 -1.167952 1.461501 9.451083 5.177025 0.000002 0.000000 -0.000001 2.193385 3.341371 -6.811410 0.027126 0.239051 -19.573125 0.044899 0.181016 -15.134412 -0.000002 0.000000 0.000001 -1.826029 5.440487 -12.043541 0.101622 0.635393 -25.577288 0.043479 0.031132 -11.908568 -0.000000 0.000000 0.000000 -4.593013 9.941409 -8.420108 -0.044570 0.329003 -30.399437 0.084347 0.676278 -13.918808 0.000000 0.000000 -0.000001 -6.117683 11.052276 -19.980943 0.058442 0.241812 -30.558461 0.014575 0.135784 -12.301477 -0.000000 0.000000 -0.000001 3.233185 7.582017 4.843429 0.000000 0.000000 0.000000 5.215429 3.086638 77.680575 0.821299 17.890998 0.179978 -6.140633 -3.482970 -10.626883 -0.602016 -9.897173 -6.204832 6.697326 -10.433166 1.068087 1.020219 -7.951272 -4.641817 0.000001 -0.000001 0.000003 2.344625 -3.317798 9.474896 0.008472 -0.236762 18.079521 0.036254 -0.164563 14.326853 0.000000 -0.000000 -0.000000 -1.739756 -4.969231 14.208424 0.122232 -0.588446 25.549607 0.034461 -0.045408 11.789167 0.000001 0.000001 -0.000005 -4.378360 -8.726578 12.090914 -0.011008 -0.303305 31.169497 0.098164 -0.630563 15.435223 -0.000001 0.000001 -0.000003 -6.122431 -9.468419 23.749514 0.062742 -0.217963 32.652054 0.019490 -0.125443 15.202989 -0.000000 -0.000000 0.000001 1.641143 21.321052 2.332662 13.175705 3.039589 1.070535 -10.229070 -0.453120 -1.768369 -0.077670 -0.000342 -0.084089 -0.000000 -0.000001 0.000000 -4.189546 -8.806726 -13.053388 9.069963 -12.163913 1.404219 3.459695 -1.600373 10.582635 -0.002822 0.000068 0.000576 0.000000 0.000000 0.000000 
-0.456690 96.446304 -1.364864 -5.112529 -11.137123 -2.054396 12.010427 1.549333 -0.967087 -4.022317 -8.545086 0.875560 0.000000 0.000000 0.000000 -5.995742 4.530748 -2.565627 11.168334 -0.150681 0.337644 -2.005923 -0.852417 3.997329 0.000000 0.000002 -0.000000 3.847713 -13.403302 -1.405390 0.000000 0.000000 0.000000 5.532358 4.526083 -77.236995 3.314033 -11.916841 0.364353 -11.280411 -2.382530 7.805456 -3.741364 8.202139 12.265805 7.167525 11.273417 -1.129246 1.585739 9.695402 5.185951 -0.000002 -0.000001 -0.000003 2.128885 3.258854 -6.798521 0.031108 0.239673 -20.503680 0.048018 0.181164 -15.948230 0.000001 0.000000 0.000004 -1.790223 5.382976 -12.275173 0.101234 0.627283 -25.911542 0.043955 0.030642 -12.801791 0.000001 -0.000002 -0.000002 -4.507506 9.921110 -8.587966 -0.043607 0.330010 -30.555490 0.086997 0.666835 -14.400325 -0.000001 -0.000000 -0.000000 -6.019650 10.984435 -20.040198 0.058229 0.241499 -30.481802 0.015324 0.135742 -12.596459 0.000000 -0.000000 0.000002 3.160101 7.466489 4.995547 0.000000 0.000000 0.000000 5.215058 3.771394 77.295011 1.040019 17.904625 0.279774 -6.510700 -3.215571 -10.744599 -0.653327 -10.225393 -6.250769 6.425223 -10.004294 0.991548 0.983029 -7.623602 -4.446362 0.000000 0.000002 0.000002 2.338196 -3.203150 9.889830 0.005124 -0.228733 17.882308 0.035735 -0.157784 14.273674 0.000000 -0.000000 -0.000000 -1.655206 -4.712931 14.452942 0.116469 -0.563826 25.053808 0.034673 -0.045693 11.850082 -0.000000 -0.000000 -0.000002 -4.176950 -8.221543 12.589102 -0.011647 -0.289360 30.531915 0.094085 -0.604411 15.435326 0.000000 -0.000000 0.000002 -6.001270 -8.792427 23.928972 0.055367 -0.210459 32.046807 0.019699 -0.120029 15.305851 -0.000000 0.000001 -0.000003 0.934756 21.413493 2.599160 13.776497 2.605531 1.037026 -10.362486 -0.385311 -1.606614 -0.078407 -0.000329 -0.082517 0.000000 -0.000000 -0.000000 -4.525592 -8.750496 -12.969516 9.483912 -12.274863 1.336110 3.271127 -1.561995 10.698226 -0.002823 -0.000005 0.000567 -0.000000 0.000002 0.000000 
